<svg aria-hidden="true" style="width:0;height:0;position:absolute;overflow:hidden" xmlns="http://www.w3.org/2000/svg"><defs><symbol id="icon-find" viewBox="0 0 32 32"><path fill="#f86e51" style="fill:var(--color1,#f86e51)" d="M32 16c0 8.837-7.163 16-16 16S0 24.837 0 16 7.163 0 16 0s16 7.163 16 16z"/><path fill="#d34e40" style="fill:var(--color2,#d34e40)" d="m31.969 15.011-7.517-7.517L5.577 22.31l9.602 9.669c.272.014.545.021.821.021 8.837 0 16-7.163 16-16 0-.332-.011-.662-.031-.989z"/><path fill="#79302a" style="fill:var(--color3,#79302a)" d="M26.667 14.222a8.89 8.89 0 1 1-17.779 0 8.89 8.89 0 0 1 17.779 0z"/><path fill="#662621" style="fill:var(--color4,#662621)" d="M17.778 5.333c-.622 0-1.228.064-1.814.186v17.406a8.89 8.89 0 1 0 1.814-17.592z"/><path fill="#fff" style="fill:var(--color5,#fff)" d="M17.778 4.741c-5.228 0-9.481 4.253-9.481 9.481s4.253 9.481 9.481 9.481 9.481-4.253 9.481-9.481-4.253-9.481-9.481-9.481zm7.415 5.768a8.18 8.18 0 0 0-.825-.566 10.144 10.144 0 0 0-1.556-.754 10.191 10.191 0 0 0-.754-1.556 8.348 8.348 0 0 0-.566-.825 8.352 8.352 0 0 1 3.702 3.702zm.812 3.121h-2.314a14.496 14.496 0 0 0-.404-2.93 8.5 8.5 0 0 1 .471.26c1.247.748 2.024 1.68 2.247 2.67zm-8.82 0H13.05c.051-1.251.263-2.445.619-3.516a12.873 12.873 0 0 1 3.516-.619v4.135zm0 1.185v4.135a12.873 12.873 0 0 1-3.516-.619 12.866 12.866 0 0 1-.619-3.516h4.135zm1.185 0h4.135a12.866 12.866 0 0 1-.619 3.516 12.873 12.873 0 0 1-3.516.619v-4.135zm0-1.185V9.495c1.25.051 2.445.263 3.516.619.356 1.071.568 2.265.619 3.516H18.37zm2.671-5.388a8.5 8.5 0 0 1 .26.471 14.516 14.516 0 0 0-2.93-.403V5.996c.991.223 1.922 1 2.671 2.247zm-6.526 0c.748-1.247 1.68-2.024 2.67-2.247v2.314a14.639 14.639 0 0 0-2.93.403 8.5 8.5 0 0 1 .26-.471zm-.45-1.435a8.18 8.18 0 0 0-.566.825 10.144 10.144 0 0 0-.754 1.556c-.555.216-1.077.467-1.556.754a8.348 8.348 0 0 0-.825.566 8.352 8.352 0 0 1 3.702-3.702zm-2.268 4.152a8.5 8.5 0 0 1 .471-.26 14.587 14.587 0 0 0-.404 2.93H9.55c.223-.991 1-1.922 2.247-2.67zm.067 3.856c.038 1.017.175 2.004.404 2.93a8.5 8.5 0 0 1-.471-.26c-1.247-.748-2.024-1.68-2.247-2.67h2.314zm-1.502 3.121c.254.198.528.388.825.566.479.288 1.002.539 1.556.754.216.555.467 1.077.754 1.556.179.297.368.571.566.825a8.352 8.352 0 0 1-3.702-3.702zm4.153 2.267a8.5 8.5 0 0 1-.26-.471c.927.229 1.914.365 2.93.404v2.314c-.991-.223-1.922-1-2.671-2.247zm6.526 0c-.748 1.247-1.68 2.024-2.67 2.247v-2.314a14.567 14.567 0 0 0 2.93-.404 8.5 8.5 0 0 1-.26.471zm.45 1.435a8.18 8.18 0 0 0 .566-.825c.288-.479.539-1.002.754-1.556a10.191 10.191 0 0 0 1.556-.754c.297-.179.571-.368.825-.566a8.352 8.352 0 0 1-3.702 3.702zm2.267-4.153a8.5 8.5 0 0 1-.471.26c.229-.927.365-1.914.404-2.93h2.314c-.223.991-1 1.922-2.247 2.67z"/><path fill="#d0d5d9" style="fill:var(--color6,#d0d5d9)" d="M17.778 4.741a9.52 9.52 0 0 0-1.814.175v1.658c.39-.288.8-.484 1.221-.579v2.314c-.413.016-.82.048-1.221.096v1.194c.4-.052.807-.088 1.221-.105v4.135h-1.221v1.185h1.221v4.135a13.852 13.852 0 0 1-1.221-.105v1.194c.401.047.808.08 1.221.096v2.314a3.276 3.276 0 0 1-1.221-.579v1.658a9.424 9.424 0 0 0 1.814.175c5.228 0 9.481-4.253 9.481-9.481S23.006 4.74 17.778 4.74zm7.415 5.768a8.18 8.18 0 0 0-.825-.566 10.144 10.144 0 0 0-1.556-.754 10.191 10.191 0 0 0-.754-1.556 8.348 8.348 0 0 0-.566-.825 8.352 8.352 0 0 1 3.702 3.702zm.812 3.121h-2.314a14.496 14.496 0 0 0-.404-2.93 8.5 8.5 0 0 1 .471.26c1.247.748 2.024 1.68 2.247 2.67zM18.37 5.995c.991.223 1.922 1 2.67 2.247a8.5 8.5 0 0 1 .26.471 14.516 14.516 0 0 0-2.93-.403V5.996zm0 3.499c1.25.051 2.445.263 3.516.619.356 1.071.568 2.265.619 3.516H18.37V9.494zm0 5.321h4.135a12.866 12.866 0 0 1-.619 3.516 12.873 12.873 0 0 1-3.516.619v-4.135zm2.671 5.388c-.748 1.247-1.68 2.024-2.67 2.247v-2.314a14.567 14.567 0 0 0 2.93-.404 8.5 8.5 0 0 1-.26.471zm.45 1.435a8.18 8.18 0 0 0 .566-.825c.288-.479.539-1.002.754-1.556a10.191 10.191 0 0 0 1.556-.754c.297-.179.571-.368.825-.566a8.352 8.352 0 0 1-3.702 3.702zm2.267-4.153a8.5 8.5 0 0 1-.471.26c.229-.927.365-1.914.404-2.93h2.314c-.223.991-1 1.922-2.247 2.67z"/><path fill="#34495e" style="fill:var(--color7,#34495e)" d="m18.349 26.876-4.977-4.977a5.202 5.202 0 0 0 1.146-3.26c0-2.881-2.344-5.226-5.226-5.226s-5.226 2.344-5.226 5.226 2.344 5.226 5.226 5.226a5.193 5.193 0 0 0 2.887-.873l5.027 5.027a.806.806 0 0 0 1.142 0 .81.81 0 0 0 0-1.143zM5.684 18.64c0-1.99 1.619-3.609 3.609-3.609s3.609 1.619 3.609 3.609-1.619 3.609-3.609 3.609-3.609-1.619-3.609-3.609z"/><path fill="#2c3e50" style="fill:var(--color8,#2c3e50)" d="m18.349 26.876-2.385-2.385v2.286l1.242 1.242a.806.806 0 0 0 1.142 0 .81.81 0 0 0 0-1.143z"/></symbol></defs></svg>