<svg aria-hidden="true" style="position: absolute; width: 0; height: 0; overflow: hidden;" version="1.1" xmlns="http://www.w3.org/2000/svg" xmlns:xlink="http://www.w3.org/1999/xlink">
<defs>
<symbol id="icon-find" viewBox="0 0 32 32">
<path fill="#f86e51" style="fill: var(--color1, #f86e51)" d="M32 16c0 8.837-7.163 16-16 16s-16-7.163-16-16c0-8.837 7.163-16 16-16s16 7.163 16 16z"></path>
<path fill="#d34e40" style="fill: var(--color2, #d34e40)" d="M31.969 15.011l-7.517-7.517-18.875 14.816 9.602 9.669c0.272 0.014 0.545 0.021 0.821 0.021 8.837 0 16-7.163 16-16 0-0.332-0.011-0.662-0.031-0.989z"></path>
<path fill="#79302a" style="fill: var(--color3, #79302a)" d="M26.667 14.222c0 4.909-3.98 8.889-8.889 8.889s-8.889-3.98-8.889-8.889c0-4.909 3.98-8.889 8.889-8.889s8.889 3.98 8.889 8.889z"></path>
<path fill="#662621" style="fill: var(--color4, #662621)" d="M17.778 5.333c-0.622 0-1.228 0.064-1.814 0.186v17.406c0.586 0.121 1.192 0.186 1.814 0.186 4.909 0 8.889-3.98 8.889-8.889s-3.98-8.889-8.889-8.889z"></path>
<path fill="#fff" style="fill: var(--color5, #fff)" d="M17.778 4.741c-5.228 0-9.481 4.253-9.481 9.481s4.253 9.481 9.481 9.481 9.481-4.253 9.481-9.481-4.253-9.481-9.481-9.481zM25.193 10.509c-0.254-0.198-0.528-0.388-0.825-0.566-0.479-0.288-1.002-0.539-1.556-0.754-0.215-0.555-0.467-1.077-0.754-1.556-0.179-0.297-0.368-0.571-0.566-0.825 1.597 0.803 2.899 2.106 3.702 3.702zM26.005 13.63h-2.314c-0.038-1.017-0.175-2.004-0.404-2.93 0.161 0.083 0.319 0.169 0.471 0.26 1.247 0.748 2.024 1.68 2.247 2.67zM17.185 13.63h-4.135c0.051-1.251 0.263-2.445 0.619-3.516 1.071-0.356 2.266-0.568 3.516-0.619v4.135h0zM17.185 14.815v4.135c-1.25-0.051-2.445-0.263-3.516-0.619-0.356-1.071-0.568-2.265-0.619-3.516l4.135 0zM18.37 14.815h4.135c-0.051 1.251-0.263 2.445-0.619 3.516-1.071 0.356-2.266 0.568-3.516 0.619v-4.135h-0zM18.37 13.63v-4.135c1.25 0.051 2.445 0.263 3.516 0.619 0.356 1.071 0.568 2.265 0.619 3.516l-4.135-0zM21.041 8.242c0.091 0.152 0.177 0.31 0.26 0.471-0.927-0.229-1.914-0.365-2.93-0.403v-2.314c0.991 0.223 1.922 1 2.671 2.247zM14.515 8.242c0.748-1.247 1.68-2.024 2.67-2.247v2.314c-1.017 0.039-2.004 0.175-2.93 0.403 0.083-0.161 0.169-0.319 0.26-0.471zM14.065 6.807c-0.198 0.254-0.388 0.528-0.566 0.825-0.288 0.479-0.539 1.002-0.754 1.556-0.555 0.216-1.077 0.467-1.556 0.754-0.297 0.179-0.571 0.368-0.825 0.566 0.803-1.597 2.106-2.899 3.702-3.702zM11.797 10.959c0.152-0.091 0.31-0.177 0.471-0.26-0.229 0.927-0.365 1.914-0.404 2.93h-2.314c0.223-0.991 1-1.922 2.247-2.67zM11.864 14.815c0.038 1.017 0.175 2.004 0.404 2.93-0.161-0.083-0.319-0.169-0.471-0.26-1.247-0.748-2.024-1.68-2.247-2.67h2.314zM10.362 17.936c0.254 0.198 0.528 0.388 0.825 0.566 0.479 0.288 1.002 0.539 1.556 0.754 0.216 0.555 0.467 1.077 0.754 1.556 0.179 0.297 0.368 0.571 0.566 0.825-1.597-0.803-2.899-2.106-3.702-3.702zM14.515 20.203c-0.091-0.152-0.177-0.31-0.26-0.471 0.927 0.229 1.914 0.365 2.93 0.404v2.314c-0.991-0.223-1.922-1-2.671-2.247zM21.041 20.203c-0.748 1.247-1.68 2.024-2.67 2.247v-2.314c1.017-0.039 2.004-0.175 2.93-0.404-0.083 0.161-0.169 0.319-0.26 0.471zM21.491 21.638c0.198-0.254 0.388-0.528 0.566-0.825 0.288-0.479 0.539-1.002 0.754-1.556 0.555-0.215 1.077-0.467 1.556-0.754 0.297-0.179 0.571-0.368 0.825-0.566-0.803 1.597-2.106 2.899-3.702 3.702zM23.758 17.485c-0.152 0.091-0.31 0.177-0.471 0.26 0.229-0.927 0.365-1.914 0.404-2.93h2.314c-0.223 0.991-1 1.922-2.247 2.67z"></path>
<path fill="#d0d5d9" style="fill: var(--color6, #d0d5d9)" d="M17.778 4.741c-0.62 0-1.226 0.061-1.814 0.175v1.658c0.39-0.288 0.8-0.484 1.221-0.579v2.314c-0.413 0.016-0.82 0.048-1.221 0.096v1.194c0.4-0.052 0.807-0.088 1.221-0.105v4.135h-1.221v1.185h1.221v4.135c-0.414-0.017-0.822-0.053-1.221-0.105v1.194c0.401 0.047 0.808 0.080 1.221 0.096v2.314c-0.421-0.095-0.831-0.291-1.221-0.579v1.658c0.587 0.115 1.193 0.175 1.814 0.175 5.228 0 9.481-4.253 9.481-9.481s-4.253-9.481-9.481-9.481zM25.193 10.509c-0.254-0.198-0.528-0.388-0.825-0.566-0.479-0.288-1.002-0.539-1.556-0.754-0.215-0.555-0.467-1.077-0.754-1.556-0.179-0.297-0.368-0.571-0.566-0.825 1.597 0.803 2.899 2.106 3.702 3.702zM26.005 13.63h-2.314c-0.038-1.017-0.175-2.004-0.404-2.93 0.161 0.083 0.319 0.169 0.471 0.26 1.247 0.748 2.024 1.68 2.247 2.67zM18.37 5.995c0.991 0.223 1.922 1 2.67 2.247 0.091 0.152 0.177 0.31 0.26 0.471-0.927-0.229-1.914-0.365-2.93-0.403l0-2.314zM18.37 9.494c1.25 0.051 2.445 0.263 3.516 0.619 0.356 1.071 0.568 2.265 0.619 3.516h-4.135v-4.135zM18.37 14.815h4.135c-0.051 1.251-0.263 2.445-0.619 3.516-1.071 0.356-2.266 0.568-3.516 0.619v-4.135h-0zM21.041 20.203c-0.748 1.247-1.68 2.024-2.67 2.247v-2.314c1.017-0.039 2.004-0.175 2.93-0.404-0.083 0.161-0.169 0.319-0.26 0.471zM21.491 21.638c0.198-0.254 0.388-0.528 0.566-0.825 0.288-0.479 0.539-1.002 0.754-1.556 0.555-0.215 1.077-0.467 1.556-0.754 0.297-0.179 0.571-0.368 0.825-0.566-0.803 1.597-2.106 2.899-3.702 3.702zM23.758 17.485c-0.152 0.091-0.31 0.177-0.471 0.26 0.229-0.927 0.365-1.914 0.404-2.93h2.314c-0.223 0.991-1 1.922-2.247 2.67z"></path>
<path fill="#34495e" style="fill: var(--color7, #34495e)" d="M18.349 26.876l-4.977-4.977c0.716-0.895 1.146-2.028 1.146-3.26 0-2.881-2.344-5.226-5.226-5.226s-5.226 2.344-5.226 5.226 2.344 5.226 5.226 5.226c1.067 0 2.059-0.322 2.887-0.873l5.027 5.027c0.158 0.158 0.365 0.237 0.571 0.237s0.414-0.079 0.571-0.237c0.315-0.316 0.315-0.827-0-1.143zM5.684 18.64c0-1.99 1.619-3.609 3.609-3.609s3.609 1.619 3.609 3.609-1.619 3.609-3.609 3.609-3.609-1.619-3.609-3.609z"></path>
<path fill="#2c3e50" style="fill: var(--color8, #2c3e50)" d="M18.349 26.876l-2.385-2.385v2.286l1.242 1.242c0.158 0.158 0.365 0.237 0.571 0.237s0.414-0.079 0.571-0.237c0.315-0.316 0.315-0.827 0-1.143z"></path>
</symbol>
</defs>
</svg>
